<mxfile modified="2022-09-30T16:30:24.728Z" host="app.diagrams.net" agent="5.0 (Macintosh; Intel Mac OS X 10_15_7) AppleWebKit/537.36 (KHTML, like Gecko) Chrome/106.0.0.0 Safari/537.36" etag="qCX5hzspQNi9I0joozVf" version="20.4.0" type="github">
  <diagram id="WI9T0HZ2pTsCkuznbFz-" name="Page-1">
    <mxGraphModel dx="853" dy="573" grid="1" gridSize="10" guides="1" tooltips="1" connect="1" arrows="1" fold="1" page="1" pageScale="1" pageWidth="1169" pageHeight="827" math="0" shadow="0">
      <root>
        <mxCell id="0" />
        <mxCell id="1" parent="0" />
        <mxCell id="AcxdMaKK0mU5kZiv2lnr-19" style="edgeStyle=orthogonalEdgeStyle;rounded=0;orthogonalLoop=1;jettySize=auto;html=1;strokeColor=#808080;" parent="1" edge="1">
          <mxGeometry relative="1" as="geometry">
            <Array as="points">
              <mxPoint x="660" y="562" />
            </Array>
            <mxPoint x="660" y="430" as="sourcePoint" />
            <mxPoint x="757.9999999999998" y="562" as="targetPoint" />
          </mxGeometry>
        </mxCell>
        <mxCell id="AcxdMaKK0mU5kZiv2lnr-17" style="edgeStyle=elbowEdgeStyle;rounded=0;orthogonalLoop=1;jettySize=auto;html=1;entryX=-0.016;entryY=0.49;entryDx=0;entryDy=0;entryPerimeter=0;elbow=vertical;strokeColor=#808080;" parent="1" edge="1">
          <mxGeometry relative="1" as="geometry">
            <mxPoint x="305.9999999999998" y="223.5" as="sourcePoint" />
            <mxPoint x="376.9760000000001" y="223.3599999999999" as="targetPoint" />
          </mxGeometry>
        </mxCell>
        <mxCell id="AcxdMaKK0mU5kZiv2lnr-4" value="Channel" style="rounded=0;whiteSpace=wrap;html=1;fillColor=#f5f5f5;strokeColor=none;fontColor=#333333;verticalAlign=top;" parent="1" vertex="1">
          <mxGeometry x="260" y="60" width="390" height="250" as="geometry" />
        </mxCell>
      </root>
    </mxGraphModel>
  </diagram>
</mxfile>
